<?xml version="1.0" encoding="utf-8"?>
<!-- Generator: Adobe Illustrator 25.4.1, SVG Export Plug-In . SVG Version: 6.00 Build 0)  -->
<svg version="1.1" baseProfile="basic" id="Capa_1" xmlns="http://www.w3.org/2000/svg" xmlns:xlink="http://www.w3.org/1999/xlink"
	 x="0px" y="0px" viewBox="0 0 108.15 133.17" xml:space="preserve">
<style type="text/css">
	.st0{fill:#CDA248;}
	.st1{fill:#FFFFFF;}
	.st2{fill:#033A42;}
	.st3{fill-rule:evenodd;clip-rule:evenodd;fill:#087B35;}
	.st4{fill:#012B31;}
	.st5{fill-rule:evenodd;clip-rule:evenodd;fill:#055D53;}
	.st6{fill:#DDB186;}
	.st7{fill:#A16B36;}
</style>
<g>
	<g>
		<rect x="0.01" y="0.01" class="st6" width="16.16" height="6.38"/>
		<rect x="0.01" y="11.9" class="st6" width="16.16" height="6.38"/>
		<rect x="0.01" y="24.28" class="st6" width="16.16" height="6.38"/>
		<rect x="0.01" y="36.18" class="st6" width="16.16" height="6.38"/>
		<rect x="0.01" y="48.55" class="st6" width="16.16" height="6.38"/>
		<rect x="0.01" y="60.45" class="st6" width="16.16" height="6.38"/>
		<rect x="0.01" y="72.82" class="st6" width="16.16" height="6.38"/>
		<rect x="0.01" y="84.72" class="st6" width="16.16" height="6.38"/>
		<rect x="0.01" y="98.07" class="st6" width="16.16" height="6.38"/>
		<rect x="0.01" y="110.44" class="st6" width="16.16" height="6.38"/>
		<rect x="0.01" y="122.34" class="st6" width="16.16" height="6.38"/>
	</g>
	<g>
		<polygon class="st7" points="16.17,0.01 16.17,6.41 28.09,10.83 28.09,4.6 		"/>
		<polygon class="st7" points="16.17,18.31 28.09,22.73 28.09,16.5 16.17,11.9 		"/>
		<polygon class="st7" points="16.17,30.68 28.09,35.1 28.09,28.87 16.17,24.28 		"/>
		<polygon class="st7" points="16.17,42.58 28.09,47 28.09,40.77 16.17,36.18 		"/>
		<polygon class="st7" points="16.17,54.95 28.09,59.37 28.09,53.14 16.17,48.55 		"/>
		<polygon class="st7" points="16.17,66.85 28.09,71.27 28.09,65.04 16.17,60.45 		"/>
		<polygon class="st7" points="16.17,79.22 28.09,83.64 28.09,77.42 16.17,72.82 		"/>
		<polygon class="st7" points="16.17,91.12 28.09,95.54 28.09,89.31 16.17,84.72 		"/>
		<polygon class="st7" points="16.17,104.47 28.09,108.89 28.09,102.67 16.17,98.07 		"/>
		<polygon class="st7" points="16.17,116.85 28.09,121.27 28.09,115.04 16.17,110.44 		"/>
		<polygon class="st7" points="16.17,128.75 28.09,133.17 28.09,126.94 16.17,122.34 		"/>
	</g>
	<polygon class="st7" points="27.99,28.87 27.99,35.1 39.91,30.68 39.91,24.28 	"/>
	<polygon class="st7" points="27.99,47 39.91,42.58 39.91,36.18 27.99,40.77 	"/>
	<polygon class="st7" points="27.99,59.37 39.91,54.95 39.91,48.55 27.99,53.14 	"/>
	<g>
		<rect x="39.8" y="24.28" class="st6" width="16.16" height="6.38"/>
		<rect x="39.8" y="36.18" class="st6" width="16.16" height="6.38"/>
		<rect x="39.8" y="48.55" class="st6" width="16.16" height="6.38"/>
		<rect x="39.8" y="60.45" class="st6" width="16.16" height="6.38"/>
		<rect x="39.8" y="72.82" class="st6" width="16.16" height="6.38"/>
		<rect x="39.8" y="84.72" class="st6" width="16.16" height="6.38"/>
		<rect x="39.8" y="98.07" class="st6" width="16.16" height="6.38"/>
		<rect x="39.8" y="110.44" class="st6" width="16.16" height="6.38"/>
		<rect x="39.8" y="122.34" class="st6" width="16.16" height="6.38"/>
	</g>
	<g>
		<polygon class="st7" points="55.97,24.28 55.97,30.68 67.89,35.1 67.89,28.87 		"/>
		<polygon class="st7" points="55.97,42.58 67.89,47 67.89,40.77 55.97,36.18 		"/>
		<polygon class="st7" points="55.97,54.95 67.89,59.37 67.89,53.14 55.97,48.55 		"/>
		<polygon class="st7" points="55.97,66.85 67.89,71.27 67.89,65.04 55.97,60.45 		"/>
		<polygon class="st7" points="55.97,79.22 67.89,83.64 67.89,77.42 55.97,72.82 		"/>
		<polygon class="st7" points="55.97,91.12 67.89,95.54 67.89,89.31 55.97,84.72 		"/>
		<polygon class="st7" points="55.97,104.47 67.89,108.89 67.89,102.67 55.97,98.07 		"/>
		<polygon class="st7" points="55.97,116.85 67.89,121.27 67.89,115.04 55.97,110.44 		"/>
		<polygon class="st7" points="55.97,128.75 67.89,133.17 67.89,126.94 55.97,122.34 		"/>
	</g>
	<polygon class="st7" points="67.96,28.87 67.96,35.1 79.89,30.68 79.89,24.28 	"/>
	<polygon class="st7" points="67.96,47 79.89,42.58 79.89,36.18 67.96,40.77 	"/>
	<polygon class="st7" points="67.96,59.37 79.89,54.95 79.89,48.55 67.96,53.14 	"/>
	<g>
		<rect x="80.06" y="11.9" class="st6" width="16.16" height="6.38"/>
		<rect x="80.06" y="24.28" class="st6" width="16.16" height="6.38"/>
		<rect x="80.06" y="36.18" class="st6" width="16.16" height="6.38"/>
		<rect x="80.06" y="48.55" class="st6" width="16.16" height="6.38"/>
		<rect x="80.06" y="60.45" class="st6" width="16.16" height="6.38"/>
		<rect x="80.06" y="72.82" class="st6" width="16.16" height="6.38"/>
		<rect x="80.06" y="84.72" class="st6" width="16.16" height="6.38"/>
		<rect x="80.06" y="98.07" class="st6" width="16.16" height="6.38"/>
		<rect x="80.06" y="110.44" class="st6" width="16.16" height="6.38"/>
		<rect x="80.06" y="122.34" class="st6" width="16.16" height="6.38"/>
	</g>
	<g>
		<polygon class="st7" points="96.22,11.9 96.22,18.31 108.15,22.73 108.15,16.5 		"/>
		<polygon class="st7" points="96.22,30.68 108.15,35.1 108.15,28.87 96.22,24.28 		"/>
		<polygon class="st7" points="96.22,42.58 108.15,47 108.15,40.77 96.22,36.18 		"/>
		<polygon class="st7" points="96.22,54.95 108.15,59.37 108.15,53.14 96.22,48.55 		"/>
		<polygon class="st7" points="96.22,66.85 108.15,71.27 108.15,65.04 96.22,60.45 		"/>
		<polygon class="st7" points="96.22,79.22 108.15,83.64 108.15,77.42 96.22,72.82 		"/>
		<polygon class="st7" points="96.22,91.12 108.15,95.54 108.15,89.31 96.22,84.72 		"/>
		<polygon class="st7" points="96.22,104.47 108.15,108.89 108.15,102.67 96.22,98.07 		"/>
		<polygon class="st7" points="96.22,116.85 108.15,121.27 108.15,115.04 96.22,110.44 		"/>
		<polygon class="st7" points="96.22,128.75 108.15,133.17 108.15,126.94 96.22,122.34 		"/>
	</g>
</g>
</svg>
