<?xml version="1.0" encoding="utf-8"?>
<!-- Generator: Adobe Illustrator 25.4.1, SVG Export Plug-In . SVG Version: 6.00 Build 0)  -->
<svg version="1.1" baseProfile="basic" id="Capa_1" xmlns="http://www.w3.org/2000/svg" xmlns:xlink="http://www.w3.org/1999/xlink"
	 x="0px" y="0px" viewBox="0 0 228.07 66.07" xml:space="preserve">
<style type="text/css">
	.st0{fill:#CDA248;}
	.st1{fill:#FFFFFF;}
	.st2{fill:#033A42;}
	.st3{fill-rule:evenodd;clip-rule:evenodd;fill:#087B35;}
	.st4{fill:#012B31;}
	.st5{fill-rule:evenodd;clip-rule:evenodd;fill:#055D53;}
	.st6{fill:#DDB186;}
	.st7{fill:#A16B36;}
</style>
<g>
	<g>
		<path class="st6" d="M64.56,62.11c0.02,0.19,0.02,0.36,0.02,0.53c0,1.25-0.2,1.82-1.51,1.82c-0.78,0-1.14-0.12-1.34-0.48
			c-0.2-0.34-0.29-0.79-0.29-2.61c0-1.81,0.09-2.16,0.29-2.52c0.2-0.35,0.57-0.47,1.3-0.47c1.32,0,1.54,0.48,1.54,1.73
			c0,0.15-0.01,0.33-0.02,0.52h-1.14c0-0.62-0.02-0.79-0.05-0.9c-0.02-0.1-0.12-0.15-0.33-0.15c-0.19,0-0.27,0.05-0.3,0.15
			c-0.05,0.15-0.08,0.35-0.08,1.62c0,1.29,0.02,1.48,0.08,1.65c0.03,0.1,0.11,0.14,0.34,0.14c0.16,0,0.25-0.04,0.28-0.13
			c0.08-0.22,0.09-0.43,0.09-0.91H64.56z"/>
		<path class="st6" d="M69.33,64.46c-0.75,0-1.1-0.12-1.3-0.48c-0.2-0.36-0.29-0.71-0.29-2.56c0-1.85,0.09-2.19,0.29-2.55
			c0.2-0.36,0.55-0.48,1.3-0.48c0.74,0,1.09,0.12,1.29,0.48c0.2,0.36,0.29,0.71,0.29,2.55c0,1.85-0.09,2.2-0.29,2.56
			C70.42,64.34,70.07,64.46,69.33,64.46z M69.7,61.39c0-1.29-0.02-1.5-0.07-1.65c-0.04-0.1-0.11-0.15-0.3-0.15s-0.27,0.05-0.3,0.15
			c-0.05,0.15-0.08,0.36-0.08,1.65c0,1.26,0.02,1.47,0.08,1.62c0.03,0.1,0.11,0.14,0.3,0.14s0.26-0.04,0.3-0.14
			C69.68,62.86,69.7,62.65,69.7,61.39z"/>
		<path class="st6" d="M76.67,64.36l-1.39-3.15h-0.05v3.15h-1.11v-5.87h1.19l0.82,2.04h0.05v-2.04h1.12v5.87H76.67z"/>
		<path class="st6" d="M82.28,60.31c0.01-0.08,0.01-0.12,0.01-0.26c0-0.36-0.06-0.48-0.36-0.48c-0.29,0-0.35,0.12-0.35,0.48
			c0,0.34,0.09,0.43,0.28,0.55c0.47,0.27,0.78,0.34,1.08,0.54c0.34,0.24,0.5,0.51,0.5,1.49c0,1.4-0.35,1.82-1.54,1.82
			c-0.97,0-1.41-0.32-1.41-1.24c0-0.29,0.02-0.64,0.06-0.82h1.02c-0.02,0.06-0.02,0.13-0.02,0.22c0,0.45,0.06,0.6,0.37,0.6
			c0.31,0,0.38-0.1,0.38-0.6c0-0.3-0.09-0.42-0.29-0.57c-0.38-0.26-0.87-0.37-1.19-0.66c-0.32-0.28-0.34-0.74-0.34-1.52
			c0-1.1,0.29-1.48,1.45-1.48c1.05,0,1.42,0.3,1.42,1.29c0,0.32-0.02,0.48-0.06,0.63H82.28z"/>
		<path class="st6" d="M87.34,64.36v-4.63h-0.92v-1.24h3.06v1.24h-0.92v4.63H87.34z"/>
		<path class="st6" d="M94.56,64.36c-0.06-0.19-0.09-0.31-0.24-1.67c-0.05-0.54-0.12-0.62-0.28-0.62h-0.19v2.29h-1.22v-5.87h1.78
			c1.05,0,1.33,0.45,1.33,1.58c0,1.21-0.17,1.29-0.5,1.49v0.05c0.06,0.05,0.13,0.1,0.19,0.24c0.09,0.19,0.17,0.53,0.26,1.22
			c0.12,0.95,0.12,1.09,0.18,1.26v0.04H94.56z M94.19,60.98c0.22,0,0.31-0.16,0.31-0.7c0-0.47-0.1-0.58-0.34-0.58h-0.31v1.28H94.19z
			"/>
		<path class="st6" d="M100.84,58.49h1.21v4.06c-0.02,0.97-0.12,1.22-0.28,1.48c-0.2,0.33-0.55,0.43-1.29,0.43
			c-0.75,0-1.1-0.1-1.3-0.43c-0.17-0.26-0.29-0.51-0.29-1.48v-4.06h1.25v4.06c0,0.55,0.05,0.6,0.36,0.6s0.35-0.05,0.35-0.6V58.49z"
			/>
		<path class="st6" d="M108.33,62.11c0.02,0.19,0.02,0.36,0.02,0.53c0,1.25-0.2,1.82-1.51,1.82c-0.78,0-1.14-0.12-1.34-0.48
			c-0.2-0.34-0.29-0.79-0.29-2.61c0-1.81,0.09-2.16,0.29-2.52c0.2-0.35,0.57-0.47,1.3-0.47c1.32,0,1.54,0.48,1.54,1.73
			c0,0.15-0.01,0.33-0.02,0.52h-1.14c0-0.62-0.02-0.79-0.05-0.9c-0.02-0.1-0.12-0.15-0.33-0.15c-0.19,0-0.27,0.05-0.3,0.15
			c-0.05,0.15-0.08,0.35-0.08,1.62c0,1.29,0.02,1.48,0.08,1.65c0.03,0.1,0.11,0.14,0.34,0.14c0.16,0,0.25-0.04,0.28-0.13
			c0.08-0.22,0.09-0.43,0.09-0.91H108.33z"/>
		<path class="st6" d="M114.63,62.11c0.02,0.19,0.02,0.36,0.02,0.53c0,1.25-0.2,1.82-1.51,1.82c-0.78,0-1.14-0.12-1.34-0.48
			c-0.2-0.34-0.29-0.79-0.29-2.61c0-1.81,0.09-2.16,0.29-2.52c0.2-0.35,0.57-0.47,1.3-0.47c1.32,0,1.54,0.48,1.54,1.73
			c0,0.15-0.01,0.33-0.02,0.52h-1.14c0-0.62-0.02-0.79-0.05-0.9c-0.02-0.1-0.12-0.15-0.33-0.15c-0.19,0-0.27,0.05-0.3,0.15
			c-0.05,0.15-0.08,0.35-0.08,1.62c0,1.29,0.02,1.48,0.08,1.65c0.03,0.1,0.11,0.14,0.34,0.14c0.16,0,0.25-0.04,0.28-0.13
			c0.08-0.22,0.09-0.43,0.09-0.91H114.63z"/>
		<path class="st6" d="M117.92,64.36v-5.87h1.25v5.87H117.92z"/>
		<path class="st6" d="M123.99,64.46c-0.75,0-1.1-0.12-1.3-0.48c-0.2-0.36-0.29-0.71-0.29-2.56c0-1.85,0.09-2.19,0.29-2.55
			c0.2-0.36,0.55-0.48,1.3-0.48c0.74,0,1.09,0.12,1.29,0.48c0.2,0.36,0.29,0.71,0.29,2.55c0,1.85-0.09,2.2-0.29,2.56
			C125.09,64.34,124.74,64.46,123.99,64.46z M124.37,61.39c0-1.29-0.02-1.5-0.07-1.65c-0.04-0.1-0.11-0.15-0.3-0.15
			s-0.27,0.05-0.3,0.15c-0.05,0.15-0.08,0.36-0.08,1.65c0,1.26,0.02,1.47,0.08,1.62c0.03,0.1,0.11,0.14,0.3,0.14s0.26-0.04,0.3-0.14
			C124.34,62.86,124.37,62.65,124.37,61.39z"/>
		<path class="st6" d="M131.34,64.36l-1.39-3.15h-0.05v3.15h-1.11v-5.87h1.19l0.82,2.04h0.05v-2.04h1.12v5.87H131.34z"/>
		<path class="st6" d="M139.6,64.36v-5.87h2.6v1.24h-1.38v1.03h1.36v1.19h-1.36v1.11h1.37v1.3H139.6z"/>
		<path class="st6" d="M149.82,64.36v-5.87h1.25v5.87H149.82z"/>
		<path class="st6" d="M156.94,64.36l-1.39-3.15h-0.05v3.15h-1.11v-5.87h1.19l0.82,2.04h0.05v-2.04h1.12v5.87H156.94z"/>
		<path class="st6" d="M164.39,64.36v-3.52h-0.05l-0.89,3.52h-0.54l-0.9-3.52h-0.05v3.52h-1.11v-5.87h1.72l0.54,2.55h0.05l0.6-2.55
			h1.71l0.01,5.87H164.39z"/>
		<path class="st6" d="M170.3,64.46c-0.75,0-1.1-0.12-1.3-0.48c-0.2-0.36-0.29-0.71-0.29-2.56c0-1.85,0.09-2.19,0.29-2.55
			c0.2-0.36,0.55-0.48,1.3-0.48c0.74,0,1.09,0.12,1.29,0.48c0.2,0.36,0.29,0.71,0.29,2.55c0,1.85-0.09,2.2-0.29,2.56
			C171.4,64.34,171.05,64.46,170.3,64.46z M170.67,61.39c0-1.29-0.02-1.5-0.07-1.65c-0.04-0.1-0.11-0.15-0.3-0.15
			c-0.19,0-0.27,0.05-0.3,0.15c-0.05,0.15-0.08,0.36-0.08,1.65c0,1.26,0.02,1.47,0.08,1.62c0.03,0.1,0.11,0.14,0.3,0.14
			c0.19,0,0.26-0.04,0.3-0.14C170.65,62.86,170.67,62.65,170.67,61.39z"/>
		<path class="st6" d="M175.11,64.36v-5.87h1.74c1.05,0,1.36,0.45,1.36,1.58c0,0.85-0.1,1.02-0.41,1.23v0.05
			c0.31,0.19,0.49,0.22,0.49,1.42c0,1.13-0.29,1.58-1.33,1.58H175.11z M176.68,60.9c0.23,0,0.31-0.15,0.31-0.67
			c0-0.47-0.1-0.57-0.34-0.57h-0.33v1.25H176.68z M176.71,63.17c0.24,0,0.34-0.11,0.34-0.56c0-0.54-0.09-0.74-0.31-0.74h-0.42v1.3
			H176.71z"/>
		<path class="st6" d="M181.48,64.36v-5.87h1.25v5.87H181.48z"/>
		<path class="st6" d="M186.06,64.36v-5.87h1.22v4.57h1.26v1.3H186.06z"/>
		<path class="st6" d="M193.53,64.36l-0.1-1.36h-0.59l-0.09,1.36h-1.22l0.63-5.87h2.05l0.59,5.87H193.53z M193.17,59.72h-0.09
			l-0.19,2.1h0.48L193.17,59.72z"/>
		<path class="st6" d="M199.86,64.36c-0.06-0.19-0.09-0.31-0.24-1.67c-0.05-0.54-0.12-0.62-0.28-0.62h-0.19v2.29h-1.22v-5.87h1.78
			c1.05,0,1.33,0.45,1.33,1.58c0,1.21-0.17,1.29-0.5,1.49v0.05c0.06,0.05,0.13,0.1,0.19,0.24c0.09,0.19,0.17,0.53,0.26,1.22
			c0.12,0.95,0.12,1.09,0.18,1.26v0.04H199.86z M199.49,60.98c0.22,0,0.31-0.16,0.31-0.7c0-0.47-0.1-0.58-0.34-0.58h-0.31v1.28
			H199.49z"/>
		<path class="st6" d="M204.32,64.36v-5.87h1.25v5.87H204.32z"/>
		<path class="st6" d="M210.74,64.36l-0.1-1.36h-0.59l-0.09,1.36h-1.22l0.63-5.87h2.05l0.59,5.87H210.74z M210.38,59.72h-0.09
			l-0.19,2.1h0.48L210.38,59.72z"/>
	</g>
	<g>
		<rect x="0.02" y="0" class="st6" width="8.02" height="3.16"/>
		<rect x="0.02" y="5.9" class="st6" width="8.02" height="3.16"/>
		<rect x="0.02" y="12.03" class="st6" width="8.02" height="3.16"/>
		<rect x="0.02" y="17.94" class="st6" width="8.02" height="3.16"/>
		<rect x="0.02" y="24.07" class="st6" width="8.02" height="3.16"/>
		<rect x="0.02" y="29.97" class="st6" width="8.02" height="3.16"/>
		<rect x="0.02" y="36.11" class="st6" width="8.02" height="3.16"/>
		<rect x="0.02" y="42.01" class="st6" width="8.02" height="3.16"/>
		<rect x="0.02" y="48.64" class="st6" width="8.02" height="3.16"/>
		<rect x="0.02" y="54.77" class="st6" width="8.02" height="3.16"/>
		<rect x="0.02" y="60.68" class="st6" width="8.02" height="3.16"/>
	</g>
	<g>
		<polygon class="st7" points="8.03,0 8.03,3.17 13.95,5.36 13.95,2.28 		"/>
		<polygon class="st7" points="8.03,9.07 13.95,11.27 13.95,8.18 8.03,5.9 		"/>
		<polygon class="st7" points="8.03,15.21 13.95,17.4 13.95,14.31 8.03,12.03 		"/>
		<polygon class="st7" points="8.03,21.11 13.95,23.3 13.95,20.22 8.03,17.94 		"/>
		<polygon class="st7" points="8.03,27.25 13.95,29.44 13.95,26.35 8.03,24.07 		"/>
		<polygon class="st7" points="8.03,33.15 13.95,35.34 13.95,32.25 8.03,29.97 		"/>
		<polygon class="st7" points="8.03,39.29 13.95,41.48 13.95,38.39 8.03,36.11 		"/>
		<polygon class="st7" points="8.03,45.19 13.95,47.38 13.95,44.29 8.03,42.01 		"/>
		<polygon class="st7" points="8.03,51.81 13.95,54.01 13.95,50.92 8.03,48.64 		"/>
		<polygon class="st7" points="8.03,57.95 13.95,60.14 13.95,57.05 8.03,54.77 		"/>
		<polygon class="st7" points="8.03,63.85 13.95,66.04 13.95,62.96 8.03,60.68 		"/>
	</g>
	<polygon class="st7" points="13.89,14.31 13.89,17.4 19.81,15.21 19.81,12.03 	"/>
	<polygon class="st7" points="13.89,23.3 19.81,21.11 19.81,17.94 13.89,20.22 	"/>
	<polygon class="st7" points="13.89,29.44 19.81,27.25 19.81,24.07 13.89,26.35 	"/>
	<g>
		<rect x="19.76" y="12.03" class="st6" width="8.02" height="3.16"/>
		<rect x="19.76" y="17.94" class="st6" width="8.02" height="3.16"/>
		<rect x="19.76" y="24.07" class="st6" width="8.02" height="3.16"/>
		<rect x="19.76" y="29.97" class="st6" width="8.02" height="3.16"/>
		<rect x="19.76" y="36.11" class="st6" width="8.02" height="3.16"/>
		<rect x="19.76" y="42.01" class="st6" width="8.02" height="3.16"/>
		<rect x="19.76" y="48.64" class="st6" width="8.02" height="3.16"/>
		<rect x="19.76" y="54.77" class="st6" width="8.02" height="3.16"/>
		<rect x="19.76" y="60.68" class="st6" width="8.02" height="3.16"/>
	</g>
	<g>
		<polygon class="st7" points="27.77,12.03 27.77,15.21 33.69,17.4 33.69,14.31 		"/>
		<polygon class="st7" points="27.77,21.11 33.69,23.3 33.69,20.22 27.77,17.94 		"/>
		<polygon class="st7" points="27.77,27.25 33.69,29.44 33.69,26.35 27.77,24.07 		"/>
		<polygon class="st7" points="27.77,33.15 33.69,35.34 33.69,32.25 27.77,29.97 		"/>
		<polygon class="st7" points="27.77,39.29 33.69,41.48 33.69,38.39 27.77,36.11 		"/>
		<polygon class="st7" points="27.77,45.19 33.69,47.38 33.69,44.29 27.77,42.01 		"/>
		<polygon class="st7" points="27.77,51.81 33.69,54.01 33.69,50.92 27.77,48.64 		"/>
		<polygon class="st7" points="27.77,57.95 33.69,60.14 33.69,57.05 27.77,54.77 		"/>
		<polygon class="st7" points="27.77,63.85 33.69,66.04 33.69,62.96 27.77,60.68 		"/>
	</g>
	<polygon class="st7" points="33.72,14.31 33.72,17.4 39.64,15.21 39.64,12.03 	"/>
	<polygon class="st7" points="33.72,23.3 39.64,21.11 39.64,17.94 33.72,20.22 	"/>
	<polygon class="st7" points="33.72,29.44 39.64,27.25 39.64,24.07 33.72,26.35 	"/>
	<g>
		<rect x="39.72" y="5.9" class="st6" width="8.02" height="3.16"/>
		<rect x="39.72" y="12.03" class="st6" width="8.02" height="3.16"/>
		<rect x="39.72" y="17.94" class="st6" width="8.02" height="3.16"/>
		<rect x="39.72" y="24.07" class="st6" width="8.02" height="3.16"/>
		<rect x="39.72" y="29.97" class="st6" width="8.02" height="3.16"/>
		<rect x="39.72" y="36.11" class="st6" width="8.02" height="3.16"/>
		<rect x="39.72" y="42.01" class="st6" width="8.02" height="3.16"/>
		<rect x="39.72" y="48.64" class="st6" width="8.02" height="3.16"/>
		<rect x="39.72" y="54.77" class="st6" width="8.02" height="3.16"/>
		<rect x="39.72" y="60.68" class="st6" width="8.02" height="3.16"/>
	</g>
	<g>
		<polygon class="st7" points="47.74,5.9 47.74,9.07 53.65,11.27 53.65,8.18 		"/>
		<polygon class="st7" points="47.74,15.21 53.65,17.4 53.65,14.31 47.74,12.03 		"/>
		<polygon class="st7" points="47.74,21.11 53.65,23.3 53.65,20.22 47.74,17.94 		"/>
		<polygon class="st7" points="47.74,27.25 53.65,29.44 53.65,26.35 47.74,24.07 		"/>
		<polygon class="st7" points="47.74,33.15 53.65,35.34 53.65,32.25 47.74,29.97 		"/>
		<polygon class="st7" points="47.74,39.29 53.65,41.48 53.65,38.39 47.74,36.11 		"/>
		<polygon class="st7" points="47.74,45.19 53.65,47.38 53.65,44.29 47.74,42.01 		"/>
		<polygon class="st7" points="47.74,51.81 53.65,54.01 53.65,50.92 47.74,48.64 		"/>
		<polygon class="st7" points="47.74,57.95 53.65,60.14 53.65,57.05 47.74,54.77 		"/>
		<polygon class="st7" points="47.74,63.85 53.65,66.04 53.65,62.96 47.74,60.68 		"/>
	</g>
	<g>
		<path class="st6" d="M60.42,51.67V34.01h4.87c1.2,0,2.34,0.23,3.42,0.69c1.08,0.46,2.02,1.09,2.82,1.88
			c0.8,0.79,1.44,1.73,1.91,2.81c0.47,1.08,0.71,2.23,0.71,3.45c0,1.24-0.24,2.39-0.71,3.46c-0.47,1.07-1.11,2-1.92,2.8
			c-0.81,0.79-1.75,1.42-2.82,1.88c-1.07,0.46-2.21,0.69-3.43,0.69H60.42z M62.16,50.42h3.1c1.01,0,1.96-0.21,2.82-0.62
			c0.87-0.42,1.61-0.97,2.24-1.67c0.63-0.7,1.12-1.51,1.48-2.42c0.36-0.91,0.54-1.87,0.54-2.87c0-1-0.18-1.95-0.54-2.87
			c-0.36-0.91-0.85-1.72-1.48-2.42c-0.63-0.7-1.38-1.26-2.24-1.67c-0.87-0.42-1.81-0.62-2.82-0.62h-3.1V50.42z"/>
		<path class="st6" d="M76.28,34.01h10.93v1.25h-9.19v6.95h7.34v1.27h-7.34v6.95h9.16v1.25H76.28V34.01z"/>
		<path class="st6" d="M100.25,51.67H89.35V34.01h1.74v16.42h9.19L100.25,51.67z"/>
		<path class="st6" d="M101.69,47.27V33.98h1.74v13.29c0,0.63,0.16,1.16,0.47,1.59c0.31,0.43,0.69,0.78,1.13,1.02
			c0.44,0.25,0.9,0.43,1.37,0.54c0.47,0.11,0.85,0.17,1.15,0.17c0.29,0,0.68-0.06,1.15-0.17c0.47-0.11,0.93-0.29,1.37-0.54
			c0.44-0.25,0.82-0.59,1.14-1.02c0.31-0.43,0.47-0.96,0.47-1.59V34.01h1.19v13.26c0,0.9-0.22,1.66-0.65,2.27
			c-0.43,0.61-0.96,1.09-1.56,1.44c-0.61,0.35-1.23,0.6-1.85,0.75c-0.63,0.15-1.13,0.22-1.52,0.22s-0.9-0.07-1.52-0.22
			c-0.63-0.15-1.24-0.4-1.84-0.75c-0.6-0.35-1.12-0.83-1.56-1.44C101.91,48.93,101.69,48.17,101.69,47.27z"/>
		<path class="st6" d="M113.43,51.67l6.12-8.72l-5.48-8.94h2.19l4.43,7.31l5.12-7.31h1.49l-5.9,8.44l5.62,9.22h-2.16l-4.62-7.59
			l-5.32,7.59H113.43z"/>
		<path class="st6" d="M129.13,34.01h10.93v1.25h-9.19v6.95h7.34v1.27h-7.34v6.95h9.16v1.25h-10.91V34.01z"/>
		<path class="st6" d="M163.15,34.01v17.66l-1.74,0.03V37.66l-4.93,13.43l0.22,0.58h-1.94l-5.04-13.68v13.68h-1.19V33.98l1.63,0.03
			l5.65,15.31l5.65-15.31H163.15z"/>
		<path class="st6" d="M179.43,51.67h-2.02l-1.88-5.18h-7.09l-1.88,5.18h-1.27l6.45-17.66h1.16L179.43,51.67z M168.91,45.25h6.15
			l-3.07-8.39L168.91,45.25z"/>
		<path class="st6" d="M181.56,51.67V34.01h0.06h6.34h0.42c0.7,0.02,1.32,0.2,1.85,0.54c0.54,0.34,0.98,0.78,1.34,1.3
			c0.36,0.53,0.63,1.11,0.82,1.74c0.18,0.64,0.28,1.28,0.28,1.92c0,0.72-0.09,1.38-0.28,1.98c-0.18,0.6-0.43,1.12-0.73,1.56
			s-0.65,0.81-1.04,1.11c-0.39,0.3-0.78,0.51-1.16,0.64l3.79,6.87h-1.99L187.45,45h-4.15v6.67H181.56z M183.3,35.25v8.5h4.98
			c0.11,0,0.24-0.03,0.4-0.1c0.16-0.06,0.29-0.12,0.4-0.18c0.52-0.3,0.96-0.79,1.33-1.49c0.37-0.7,0.55-1.52,0.55-2.46
			c0-0.94-0.18-1.76-0.54-2.45c-0.36-0.69-0.8-1.19-1.31-1.51c-0.11-0.06-0.25-0.12-0.42-0.19c-0.17-0.07-0.3-0.11-0.42-0.11H183.3z
			"/>
		<path class="st6" d="M195.37,51.67V34.01h1.74v17.66H195.37z"/>
		<path class="st6" d="M211.7,34.01v17.66h-1.11l-9.25-14.2v14.2h-1.19V34.01h1.11l9.25,14.17V34.01H211.7z"/>
		<path class="st6" d="M227.98,51.67h-2.02l-1.88-5.18h-7.09l-1.88,5.18h-1.27l6.45-17.66h1.16L227.98,51.67z M217.46,45.25h6.15
			l-3.07-8.39L217.46,45.25z"/>
	</g>
	<g>
		<path class="st6" d="M65.25,16.4c0.56,0,1.14,0.08,1.74,0.25c0.59,0.17,1.15,0.44,1.66,0.81c0.2,0.14,0.4,0.3,0.58,0.46
			c0.19,0.16,0.38,0.32,0.59,0.48l0.02,0.02l0.02,2.07H69.4l-0.02-0.07c-0.12-0.56-0.34-1.05-0.67-1.46c-0.32-0.41-0.69-0.74-1.09-1
			c-0.4-0.26-0.82-0.45-1.25-0.57c-0.43-0.12-0.81-0.18-1.13-0.18c-0.68,0-1.32,0.14-1.9,0.42c-0.58,0.28-1.08,0.66-1.5,1.13
			c-0.42,0.47-0.75,1.02-0.99,1.63c-0.24,0.61-0.36,1.25-0.36,1.93c0,0.66,0.12,1.3,0.36,1.92c0.24,0.62,0.57,1.16,0.99,1.64
			c0.42,0.47,0.92,0.85,1.5,1.13c0.58,0.28,1.21,0.42,1.9,0.42c0.61,0,1.26-0.07,1.94-0.21c0.68-0.14,1.3-0.43,1.85-0.87v-3.01
			h-3.83v-0.68l4.97-0.02v3.85l-0.02,0.02c-0.34,0.31-0.71,0.58-1.12,0.79c-0.41,0.22-0.84,0.39-1.27,0.53
			c-0.43,0.14-0.86,0.24-1.3,0.31c-0.43,0.07-0.84,0.1-1.22,0.1c-0.8,0-1.57-0.15-2.29-0.46c-0.73-0.31-1.36-0.73-1.9-1.26
			c-0.54-0.53-0.97-1.16-1.29-1.88c-0.32-0.72-0.48-1.49-0.48-2.32c0-0.83,0.16-1.6,0.48-2.32c0.32-0.72,0.75-1.35,1.29-1.88
			c0.54-0.53,1.17-0.95,1.9-1.26C63.68,16.56,64.44,16.4,65.25,16.4z"/>
		<path class="st6" d="M71.76,28.06V16.58h0.04h4.12h0.27c0.46,0.01,0.86,0.13,1.21,0.35c0.35,0.22,0.64,0.5,0.87,0.85
			c0.23,0.34,0.41,0.72,0.53,1.13c0.12,0.41,0.18,0.83,0.18,1.25c0,0.47-0.06,0.9-0.18,1.29c-0.12,0.39-0.28,0.73-0.48,1.02
			c-0.2,0.29-0.42,0.53-0.67,0.72c-0.25,0.19-0.5,0.33-0.76,0.41l2.47,4.46h-1.3l-2.47-4.34h-2.7v4.34H71.76z M72.89,17.39v5.52
			h3.24c0.07,0,0.16-0.02,0.26-0.06c0.1-0.04,0.19-0.08,0.26-0.12c0.34-0.19,0.62-0.52,0.86-0.97c0.24-0.46,0.36-0.99,0.36-1.6
			c0-0.61-0.12-1.14-0.35-1.59c-0.23-0.45-0.52-0.78-0.85-0.98c-0.07-0.04-0.16-0.08-0.27-0.13c-0.11-0.05-0.2-0.07-0.27-0.07H72.89
			z"/>
		<path class="st6" d="M80.36,25.2v-8.64h1.13v8.64c0,0.41,0.1,0.75,0.31,1.03c0.2,0.28,0.45,0.5,0.74,0.67
			c0.29,0.16,0.58,0.28,0.89,0.35c0.31,0.07,0.55,0.11,0.75,0.11c0.19,0,0.44-0.04,0.75-0.11c0.31-0.07,0.6-0.19,0.89-0.35
			c0.29-0.16,0.53-0.38,0.74-0.67c0.2-0.28,0.31-0.63,0.31-1.03v-8.62h0.77v8.62c0,0.59-0.14,1.08-0.42,1.48s-0.62,0.71-1.02,0.94
			c-0.4,0.23-0.8,0.39-1.21,0.49c-0.41,0.1-0.74,0.14-0.99,0.14s-0.58-0.05-0.99-0.14c-0.41-0.1-0.81-0.26-1.2-0.49
			c-0.39-0.23-0.73-0.54-1.02-0.94C80.51,26.28,80.36,25.79,80.36,25.2z"/>
		<path class="st6" d="M89.34,16.58h3.74c0.11,0,0.22,0,0.33-0.01c0.11-0.01,0.22,0,0.33,0.01c0.46,0.02,0.86,0.14,1.21,0.36
			c0.35,0.22,0.65,0.49,0.88,0.83c0.23,0.34,0.41,0.71,0.53,1.13c0.12,0.42,0.18,0.84,0.18,1.26c0,0.41-0.06,0.83-0.19,1.25
			c-0.13,0.43-0.31,0.81-0.55,1.15c-0.24,0.34-0.54,0.62-0.89,0.84c-0.35,0.22-0.76,0.32-1.21,0.32h-3.24v4.34h-1.13V16.58z
			 M93.72,22.92c0.07,0,0.16-0.02,0.26-0.06c0.1-0.04,0.19-0.08,0.26-0.12c0.34-0.19,0.62-0.52,0.86-0.97
			c0.24-0.46,0.36-0.99,0.36-1.6c0-0.61-0.12-1.14-0.35-1.59c-0.23-0.45-0.52-0.78-0.85-0.98c-0.07-0.04-0.16-0.08-0.27-0.13
			c-0.11-0.05-0.2-0.07-0.27-0.07h-3.24v5.52H93.72z"/>
		<path class="st6" d="M97.15,22.32c0-0.83,0.16-1.6,0.48-2.32c0.32-0.72,0.75-1.35,1.29-1.88c0.54-0.53,1.17-0.95,1.9-1.26
			c0.73-0.31,1.49-0.46,2.29-0.46c0.82,0,1.58,0.15,2.3,0.46c0.72,0.31,1.35,0.73,1.9,1.26c0.55,0.53,0.98,1.16,1.3,1.88
			c0.32,0.72,0.48,1.49,0.48,2.32c0,0.83-0.16,1.6-0.48,2.32c-0.32,0.72-0.75,1.35-1.3,1.88c-0.55,0.53-1.18,0.95-1.9,1.26
			c-0.72,0.31-1.49,0.46-2.3,0.46c-0.8,0-1.57-0.15-2.29-0.46c-0.73-0.31-1.36-0.73-1.9-1.26c-0.54-0.53-0.97-1.16-1.29-1.88
			C97.31,23.92,97.15,23.15,97.15,22.32z M98.36,22.32c0,0.66,0.12,1.3,0.36,1.92c0.24,0.62,0.57,1.16,0.99,1.64
			c0.42,0.47,0.92,0.85,1.5,1.13c0.58,0.28,1.21,0.42,1.9,0.42s1.32-0.14,1.9-0.42c0.58-0.28,1.09-0.66,1.51-1.13
			c0.43-0.47,0.76-1.02,1-1.64c0.24-0.62,0.36-1.26,0.36-1.92c0-0.67-0.12-1.32-0.36-1.93c-0.24-0.62-0.57-1.16-1-1.63
			c-0.43-0.47-0.93-0.84-1.51-1.12c-0.58-0.28-1.21-0.42-1.9-0.42s-1.32,0.14-1.9,0.42c-0.58,0.28-1.08,0.66-1.5,1.13
			c-0.42,0.47-0.75,1.02-0.99,1.63C98.48,21.01,98.36,21.65,98.36,22.32z"/>
	</g>
</g>
</svg>
