<?xml version="1.0" encoding="utf-8"?>
<!-- Generator: Adobe Illustrator 25.4.1, SVG Export Plug-In . SVG Version: 6.00 Build 0)  -->
<svg version="1.1" baseProfile="basic" id="Capa_1" xmlns="http://www.w3.org/2000/svg" xmlns:xlink="http://www.w3.org/1999/xlink"
	 x="0px" y="0px" viewBox="0 0 123.61 71.88" xml:space="preserve">
<style type="text/css">
	.st0{fill:#CDA248;}
	.st1{fill:#FFFFFF;}
	.st2{fill:#033A42;}
	.st3{fill-rule:evenodd;clip-rule:evenodd;fill:#087B35;}
	.st4{fill:#012B31;}
	.st5{fill-rule:evenodd;clip-rule:evenodd;fill:#055D53;}
	.st6{fill:#DDB186;}
	.st7{fill:#A16B36;}
</style>
<path id="XMLID_00000151505992388053381640000002750335607300704643_" class="st4" d="M6.3,43.71l6.68,5.59
	c17.95,11.85,40.92-1.64,65.07-4.58c18.9-2.3,33.64,5.86,40.78,10.96l0,0l0.01,0c3.05,2.18,4.72,3.81,4.72,3.81
	c-0.03-0.02-0.06-0.04-0.09-0.05l0.09,0.07c-13.01-3.85-24.82-2.45-37.57,1.51c-15.23,4.73-31.41,11.59-47.63,10.67
	C22.26,70.78,7,60.74,0.06,46.07c8.27,11.05,19.69,19,33.54,20.84c12.1,1.61,24.33-1.08,35.89-4.51
	c14.21-4.21,33.01-11.22,48.21-5.77c0.08,0.03,0.17,0,0.22-0.08l0,0c0.06-0.09,0.02-0.22-0.08-0.26
	c-20.2-10.02-39.24-6.02-62.75-0.35c-31.69,7.64-44.76-6.54-44.76-6.54"/>
<g>
	<path class="st0" d="M31.35,37.86c0.93-0.69,1.87-1.4,2.83-2.11l-4.16-4.85c0.04,0.96,0.12,1.91,0.24,2.85
		C30.45,35.17,30.82,36.55,31.35,37.86z"/>
	<path class="st0" d="M35.6,34.68c0.39-0.3,0.76-0.58,1.1-0.84c0.36-0.28,0.7-0.54,1.02-0.78l-6.9-10.3
		c-0.31,1.29-0.54,2.61-0.68,3.96c-0.09,0.91,0.2,1.83,0.79,2.52L35.6,34.68z"/>
	<path class="st0" d="M39.17,32.01c0.89-0.6,1.66-0.99,2.44-1.15l-7.9-15.48c-0.62,1.11-1.17,2.27-1.64,3.47
		c-0.4,1-0.28,2.14,0.32,3.04L39.17,32.01z"/>
	<path class="st0" d="M43.66,30.95c0.98,0.29,2.02,0.92,3.43,1.9L38.32,9.15c-0.87,0.9-1.68,1.85-2.43,2.86
		c-0.7,0.93-0.8,2.18-0.27,3.22L43.66,30.95z"/>
	<path class="st0" d="M49.66,34.68c0.01,0.01,0.02,0.02,0.04,0.03c0.54-0.36,1.1-0.72,1.66-1.09L44.32,4.36
		c-1.07,0.65-2.1,1.37-3.08,2.14c-0.92,0.73-1.26,1.98-0.86,3.09L49.66,34.68z"/>
	<path class="st0" d="M52.94,32.57c0.2-0.13,0.4-0.27,0.6-0.4c0.44-0.29,0.87-0.58,1.31-0.87L51.29,1.28
		c-1.23,0.36-2.42,0.8-3.58,1.31c-1.04,0.46-1.6,1.59-1.34,2.7L52.94,32.57z"/>
	<path class="st0" d="M56.51,30.2c0.78-0.51,1.54-1.01,2.28-1.49V0.09c-1.18,0.03-2.35,0.14-3.49,0.31
		c-1.27,0.19-2.16,1.35-2.01,2.63L56.51,30.2z"/>
	<path class="st0" d="M60.7,27.48c1.02-0.65,1.89-1.19,2.67-1.58l2.71-22.86c0.15-1.28-0.74-2.44-2.01-2.63
		c-1.14-0.17-2.31-0.27-3.49-0.31v27.46C60.62,27.53,60.66,27.5,60.7,27.48z"/>
	<path class="st0" d="M66.17,25.11c0.67,0,1.31,0.15,1.96,0.43L73,5.29c0.27-1.1-0.3-2.24-1.34-2.7c-1.16-0.51-2.35-0.95-3.58-1.31
		L65.25,25.2C65.56,25.14,65.86,25.11,66.17,25.11z"/>
	<path class="st0" d="M71.75,27.94c0.12,0.09,0.24,0.19,0.36,0.28l6.88-18.62c0.41-1.11,0.07-2.35-0.86-3.09
		c-0.98-0.78-2.01-1.49-3.08-2.14l-5.31,22.09C70.37,26.87,71.03,27.37,71.75,27.94z"/>
	<path class="st0" d="M75.69,31.01l8.06-15.78c0.53-1.04,0.43-2.29-0.27-3.22c-0.75-1-1.56-1.96-2.43-2.86l-7.47,20.21
		C74.27,29.9,74.97,30.45,75.69,31.01z"/>
	<path class="st0" d="M79.1,33.65l7.88-11.77c0.6-0.9,0.72-2.03,0.32-3.04c-0.47-1.19-1.02-2.35-1.64-3.47l-8.55,16.74
		C77.77,32.62,78.43,33.14,79.1,33.65z"/>
	<path class="st0" d="M82.44,36.23l5.99-6.99c0.6-0.7,0.89-1.61,0.79-2.52c-0.14-1.35-0.37-2.67-0.68-3.96l-8.03,11.99
		C81.15,35.24,81.79,35.73,82.44,36.23z"/>
	<path class="st0" d="M84.64,37.91c0.02-0.02,0.04-0.04,0.06-0.05l0.55-0.36c0.39-0.25,0.74-0.49,1.07-0.7
		c1.06-0.7,1.85-1.22,2.52-1.55c0.11-0.49,0.21-0.99,0.28-1.5c0.13-0.94,0.21-1.89,0.24-2.85l-5.5,6.42
		C84.12,37.51,84.38,37.71,84.64,37.91z"/>
</g>
<g>
	<path class="st5" d="M98,41.66c-1.16-0.97-2.22-1.87-3.16-2.69c-4.71-3.72-3.48-3.99-8.84-0.49l-0.54,0.36l2.23,2.1
		C91.29,40.87,94.74,41.14,98,41.66z"/>
	<path class="st5" d="M81.5,41.36c1.74-0.21,3.45-0.34,5.13-0.4l-2.05-1.55c-5.2-3.96-10.1-7.79-13.66-10.57
		c-4.34-3.39-4.96-3.25-9.49-0.38c-3.23,2.05-7.32,4.81-11,7.23l6.03,5.47l-7.2-5.25l-0.03-0.02c-7.48-5.3-6.33-5.17-13.3,0.07
		c-5.88,4.43-12.3,9.14-18.95,13.77C35.51,56.21,58,44.22,81.5,41.36z"/>
</g>
</svg>
